<?xml version="1.0" encoding="UTF-8" standalone="no"?>
<!-- Created with Inkscape (http://www.inkscape.org/) -->

<svg
   viewBox="0 0 467.88163 467.20711"
   id="svg2"
   version="1.1"
   inkscape:version="1.2.2 (732a01da63, 2022-12-09)"
   sodipodi:docname="toolbar_button_functions_light.svg"
   inkscape:export-filename="..\images\toolbar_button_functions.svg"
   inkscape:export-xdpi="140.07675"
   inkscape:export-ydpi="140.07675"
   xml:space="preserve"
   xmlns:inkscape="http://www.inkscape.org/namespaces/inkscape"
   xmlns:sodipodi="http://sodipodi.sourceforge.net/DTD/sodipodi-0.dtd"
   xmlns="http://www.w3.org/2000/svg"
   xmlns:svg="http://www.w3.org/2000/svg"
   xmlns:rdf="http://www.w3.org/1999/02/22-rdf-syntax-ns#"
   xmlns:cc="http://creativecommons.org/ns#"
   xmlns:dc="http://purl.org/dc/elements/1.1/"><defs
     id="defs4" /><sodipodi:namedview
     id="base"
     pagecolor="#ffffff"
     bordercolor="#666666"
     borderopacity="1.0"
     inkscape:pageopacity="0.0"
     inkscape:pageshadow="2"
     inkscape:zoom="1.4142136"
     inkscape:cx="56.568541"
     inkscape:cy="221.32442"
     inkscape:document-units="px"
     inkscape:current-layer="layer1"
     showgrid="false"
     showguides="true"
     inkscape:guide-bbox="true"
     inkscape:window-width="2400"
     inkscape:window-height="1244"
     inkscape:window-x="2869"
     inkscape:window-y="-11"
     inkscape:window-maximized="1"
     inkscape:snap-to-guides="true"
     inkscape:snap-midpoints="true"
     inkscape:snap-intersection-paths="true"
     inkscape:snap-nodes="false"
     inkscape:snap-others="false"
     inkscape:showpageshadow="0"
     inkscape:pagecheckerboard="true"
     inkscape:deskcolor="#d1d1d1"><sodipodi:guide
       position="-21.955485,520.52648"
       orientation="1,0"
       id="guide4734"
       inkscape:locked="false" /><sodipodi:guide
       position="460.15423,528.49523"
       orientation="1,0"
       id="guide4736"
       inkscape:locked="false" /><sodipodi:guide
       position="-24.69024,6.8691238"
       orientation="0,1"
       id="guide4738"
       inkscape:locked="false" /><sodipodi:guide
       position="192.86954,489.26268"
       orientation="0,1"
       id="guide5168"
       inkscape:locked="false" /></sodipodi:namedview><metadata
     id="metadata7"><rdf:RDF><cc:Work
         rdf:about=""><dc:format>image/svg+xml</dc:format><dc:type
           rdf:resource="http://purl.org/dc/dcmitype/StillImage" /></cc:Work></rdf:RDF></metadata><g
     inkscape:label="Layer 1"
     inkscape:groupmode="layer"
     id="layer1"
     transform="translate(-142.16917,-274.73565)"><rect
       style="color:#000000;clip-rule:nonzero;display:inline;overflow:visible;visibility:visible;opacity:1;isolation:auto;mix-blend-mode:normal;color-interpolation:sRGB;color-interpolation-filters:linearRGB;solid-color:#000000;solid-opacity:1;fill:none;fill-opacity:1;fill-rule:nonzero;stroke:#000000;stroke-width:13.7466;stroke-linecap:round;stroke-linejoin:round;stroke-miterlimit:36.4;stroke-dasharray:none;stroke-dashoffset:0;stroke-opacity:1;color-rendering:auto;image-rendering:auto;shape-rendering:auto;text-rendering:auto;enable-background:accumulate"
       id="rect4353"
       width="454.13501"
       height="453.46051"
       x="149.04247"
       y="281.60895"
       ry="49.661018"
       inkscape:export-xdpi="6.924829"
       inkscape:export-ydpi="6.924829"
       inkscape:export-filename="..\EX_Toolbox\src\main\res\drawable\toolbar_button_track_manager.png" /><path
       style="fill:#000000;stroke-width:0.248099"
       d="M 318.16979,419.45307 V 380.8527 h 61.23357 v 38.60037 z"
       id="path2139" /><path
       style="fill:#000000;stroke-width:0.248099"
       d="m 318.16979,555.87914 v -38.60035 h 61.23357 v 38.60035 z"
       id="path2137" /><path
       style="fill:#000000;stroke-width:0.248099"
       d="m 318.16979,690.43022 v -38.60036 h 61.23357 v 38.60036 z"
       id="path2135" /><path
       style="fill:#000000;stroke-width:0.248099"
       d="M 402.54479,419.45307 V 380.8527 h 61.23357 v 38.60037 z"
       id="path2139-4" /><path
       style="fill:#000000;stroke-width:0.248099"
       d="m 402.54479,555.87914 v -38.60035 h 61.23357 v 38.60035 z"
       id="path2137-4" /><path
       style="fill:#000000;stroke-width:0.248099"
       d="m 402.54479,690.43022 v -38.60036 h 61.23357 v 38.60036 z"
       id="path2135-3" /><path
       style="fill:#000000;stroke-width:0.248099"
       d="M 490.66979,419.45307 V 380.8527 h 61.23357 v 38.60037 z"
       id="path2139-40" /><path
       style="fill:#000000;stroke-width:0.248099"
       d="m 490.66979,555.87914 v -38.60035 h 61.23357 v 38.60035 z"
       id="path2137-9" /><path
       style="fill:#000000;stroke-width:0.248099"
       d="m 490.66979,690.43022 v -38.60036 h 61.23357 v 38.60036 z"
       id="path2135-0" /><path
       style="fill:#000000;stroke-width:0.248099"
       d="M 318.16979,365.07807 V 326.4777 h 61.23357 v 38.60037 z"
       id="path2139-7" /><path
       style="fill:#000000;stroke-width:0.248099"
       d="m 318.16979,501.50414 v -38.60035 h 61.23357 v 38.60035 z"
       id="path2137-40" /><path
       style="fill:#000000;stroke-width:0.248099"
       d="m 318.16979,636.05522 v -38.60036 h 61.23357 v 38.60036 z"
       id="path2135-6" /><path
       style="fill:#000000;stroke-width:0.248099"
       d="M 402.54479,365.07807 V 326.4777 h 61.23357 v 38.60037 z"
       id="path2139-4-5" /><path
       style="fill:#000000;stroke-width:0.248099"
       d="m 402.54479,501.50414 v -38.60035 h 61.23357 v 38.60035 z"
       id="path2137-4-6" /><path
       style="fill:#000000;stroke-width:0.248099"
       d="m 402.54479,636.05522 v -38.60036 h 61.23357 v 38.60036 z"
       id="path2135-3-8" /><path
       style="fill:#000000;stroke-width:0.248099"
       d="M 490.66979,365.07807 V 326.4777 h 61.23357 v 38.60037 z"
       id="path2139-40-5" /><path
       style="fill:#000000;stroke-width:0.248099"
       d="m 490.66979,501.50414 v -38.60035 h 61.23357 v 38.60035 z"
       id="path2137-9-2" /><path
       style="fill:#000000;stroke-width:0.248099"
       d="m 490.66979,636.05522 v -38.60036 h 61.23357 v 38.60036 z"
       id="path2135-0-8" /><path
       style="fill:#000000;stroke-width:0.482505"
       d="m 231.31898,431.25325 v -86.85081 h -28.95027 v -28.95027 h 57.90053 v 115.80108 z"
       id="path2133" /><path
       style="fill:#000000;stroke-width:0.482505"
       d="m 202.36871,566.3545 v -53.07559 q 0,-8.20243 5.54898,-13.75121 5.54878,-5.54897 13.7512,-5.54897 h 28.95027 v -14.47504 h -48.25045 v -28.95027 h 57.90053 q 8.20264,0 13.75141,5.54878 5.54878,5.54878 5.54878,13.7514 v 33.77521 q 0,8.20264 -5.54878,13.75141 -5.54877,5.54877 -13.75141,5.54877 h -28.95026 v 14.47525 h 48.25045 v 28.95026 z"
       id="path2131" /><path
       style="fill:#000000;stroke-width:0.482505"
       d="m 202.36871,701.45576 v -28.95027 h 48.25045 v -14.47524 h -28.95027 v -28.95027 h 28.95027 v -14.47503 h -48.25045 v -28.95026 h 57.90053 q 8.20264,0 13.75141,5.54877 5.54878,5.54877 5.54878,13.7514 v 19.30018 q 0,8.20262 -5.54878,13.75141 -5.54877,5.54877 -13.75141,5.54877 8.20264,0 13.75141,5.54877 5.54878,5.54878 5.54878,13.75141 v 19.30017 q 0,8.20264 -5.54878,13.75141 -5.54877,5.54878 -13.75141,5.54878 z"
       id="path277" /></g></svg>
