<?xml version="1.0" encoding="UTF-8" standalone="no"?>
<!-- Created with Inkscape (http://www.inkscape.org/) -->

<svg
   viewBox="0 0 467.88163 467.20711"
   id="svg2"
   version="1.1"
   xml:space="preserve"
   sodipodi:docname="toolbar_button_routes_disabled.svg"
   inkscape:version="1.4.2 (f4327f4, 2025-05-13)"
   xmlns:inkscape="http://www.inkscape.org/namespaces/inkscape"
   xmlns:sodipodi="http://sodipodi.sourceforge.net/DTD/sodipodi-0.dtd"
   xmlns="http://www.w3.org/2000/svg"
   xmlns:svg="http://www.w3.org/2000/svg"
   xmlns:rdf="http://www.w3.org/1999/02/22-rdf-syntax-ns#"
   xmlns:cc="http://creativecommons.org/ns#"
   xmlns:dc="http://purl.org/dc/elements/1.1/"><sodipodi:namedview
     id="namedview1"
     pagecolor="#ffffff"
     bordercolor="#000000"
     borderopacity="0.25"
     inkscape:showpageshadow="2"
     inkscape:pageopacity="0.0"
     inkscape:pagecheckerboard="0"
     inkscape:deskcolor="#d1d1d1"
     inkscape:zoom="1.3891055"
     inkscape:cx="233.96351"
     inkscape:cy="233.60356"
     inkscape:window-width="1600"
     inkscape:window-height="829"
     inkscape:window-x="-8"
     inkscape:window-y="114"
     inkscape:window-maximized="1"
     inkscape:current-layer="svg2" /><defs
     id="defs4" /><metadata
     id="metadata7"><rdf:RDF><cc:Work
         rdf:about=""><dc:format>image/svg+xml</dc:format><dc:type
           rdf:resource="http://purl.org/dc/dcmitype/StillImage" /></cc:Work></rdf:RDF></metadata><rect
     style="color:#000000;clip-rule:nonzero;display:inline;overflow:visible;visibility:visible;isolation:auto;mix-blend-mode:normal;color-interpolation:sRGB;color-interpolation-filters:linearRGB;solid-color:#000000;solid-opacity:1;fill:none;fill-opacity:1;fill-rule:nonzero;stroke:#4d4d4d;stroke-width:13.7466;stroke-linecap:round;stroke-linejoin:round;stroke-miterlimit:36.4;stroke-dasharray:none;stroke-dashoffset:0;stroke-opacity:1;color-rendering:auto;image-rendering:auto;shape-rendering:auto;text-rendering:auto;enable-background:accumulate"
     id="rect4353"
     width="454.13501"
     height="453.46051"
     x="6.8732953"
     y="6.8732977"
     ry="49.661018" /><g
     id="g409"
     transform="matrix(19.443815,0,0,19.443815,1.97931,2.67119)"
     style="fill:#4d4d4d;stroke:none"><g
       id="g407"
       style="fill:#4d4d4d;stroke:none"><path
         d="M 19,15.18 V 7 C 19,4.79 17.21,3 15,3 12.79,3 11,4.79 11,7 v 10 c 0,1.1 -0.9,2 -2,2 C 7.9,19 7,18.1 7,17 V 8.82 C 8.16,8.4 9,7.3 9,6 9,4.34 7.66,3 6,3 4.34,3 3,4.34 3,6 3,7.3 3.84,8.4 5,8.82 V 17 c 0,2.21 1.79,4 4,4 2.21,0 4,-1.79 4,-4 V 7 c 0,-1.1 0.9,-2 2,-2 1.1,0 2,0.9 2,2 v 8.18 c -1.16,0.41 -2,1.51 -2,2.82 0,1.66 1.34,3 3,3 1.66,0 3,-1.34 3,-3 0,-1.3 -0.84,-2.4 -2,-2.82 z"
         id="path405"
         style="fill:#4d4d4d;stroke:none" /></g></g></svg>
