<?xml version="1.0" encoding="UTF-8" standalone="no"?>
<!-- Created with Inkscape (http://www.inkscape.org/) -->

<svg
   viewBox="0 0 467.8816 467.20707"
   id="svg2"
   version="1.1"
   inkscape:version="1.2.2 (732a01da63, 2022-12-09)"
   sodipodi:docname="toolbar_button_throttle_light.svg"
   inkscape:export-filename="..\EX_Toolbox\src\main\res\drawable\toolbar_button_loco.webp"
   inkscape:export-xdpi="140.07675"
   inkscape:export-ydpi="140.07675"
   xml:space="preserve"
   xmlns:inkscape="http://www.inkscape.org/namespaces/inkscape"
   xmlns:sodipodi="http://sodipodi.sourceforge.net/DTD/sodipodi-0.dtd"
   xmlns="http://www.w3.org/2000/svg"
   xmlns:svg="http://www.w3.org/2000/svg"
   xmlns:rdf="http://www.w3.org/1999/02/22-rdf-syntax-ns#"
   xmlns:cc="http://creativecommons.org/ns#"
   xmlns:dc="http://purl.org/dc/elements/1.1/"><defs
     id="defs4" /><sodipodi:namedview
     id="base"
     pagecolor="#ffffff"
     bordercolor="#666666"
     borderopacity="1.0"
     inkscape:pageopacity="0.0"
     inkscape:pageshadow="2"
     inkscape:zoom="0.70710678"
     inkscape:cx="-31.112698"
     inkscape:cy="263.04372"
     inkscape:document-units="px"
     inkscape:current-layer="layer1"
     showgrid="false"
     showguides="true"
     inkscape:guide-bbox="true"
     inkscape:window-width="2400"
     inkscape:window-height="1244"
     inkscape:window-x="2869"
     inkscape:window-y="-11"
     inkscape:window-maximized="1"
     inkscape:snap-to-guides="true"
     inkscape:snap-midpoints="true"
     inkscape:snap-intersection-paths="true"
     inkscape:snap-nodes="false"
     inkscape:snap-others="false"
     inkscape:showpageshadow="0"
     inkscape:pagecheckerboard="true"
     inkscape:deskcolor="#d1d1d1"><sodipodi:guide
       position="-23.419169,524.08052"
       orientation="1,0"
       id="guide4734"
       inkscape:locked="false" /><sodipodi:guide
       position="490.83084,532.58052"
       orientation="1,0"
       id="guide4736"
       inkscape:locked="false" /><sodipodi:guide
       position="-26.336239,-23.820276"
       orientation="0,1"
       id="guide4738"
       inkscape:locked="false" /><sodipodi:guide
       position="205.72737,490.7325"
       orientation="0,1"
       id="guide5168"
       inkscape:locked="false" /><inkscape:grid
       type="xygrid"
       id="grid756"
       originx="-142.16919"
       originy="-274.73566" /></sodipodi:namedview><metadata
     id="metadata7"><rdf:RDF><cc:Work
         rdf:about=""><dc:format>image/svg+xml</dc:format><dc:type
           rdf:resource="http://purl.org/dc/dcmitype/StillImage" /></cc:Work></rdf:RDF></metadata><g
     inkscape:label="Layer 1"
     inkscape:groupmode="layer"
     id="layer1"
     transform="translate(-142.16917,-274.73565)"><rect
       style="color:#000000;clip-rule:nonzero;display:inline;overflow:visible;visibility:visible;opacity:1;isolation:auto;mix-blend-mode:normal;color-interpolation:sRGB;color-interpolation-filters:linearRGB;solid-color:#000000;solid-opacity:1;fill:none;fill-opacity:1;fill-rule:nonzero;stroke:#000000;stroke-width:13.7466;stroke-linecap:round;stroke-linejoin:round;stroke-miterlimit:36.4;stroke-dasharray:none;stroke-dashoffset:0;stroke-opacity:1;color-rendering:auto;image-rendering:auto;shape-rendering:auto;text-rendering:auto;enable-background:accumulate"
       id="rect4353"
       width="454.13501"
       height="453.46051"
       x="149.04247"
       y="281.60895"
       ry="49.661018"
       inkscape:export-xdpi="18.658567"
       inkscape:export-ydpi="18.658567"
       inkscape:export-filename="..\EX_Toolbox\src\main\res\drawable-xhdpi\toolbar_button_loco.png" /><path
       d="M 239.33095,573.28261 V 412.56937 q 0,-22.41531 11.62996,-35.73757 11.6318,-13.32226 30.66387,-20.30062 19.03207,-6.97836 43.34957,-9.30454 24.31924,-2.326 49.69411,-2.326 27.91374,0 52.65527,2.326 24.74142,2.32618 43.13831,9.30454 18.3969,6.97836 28.97122,20.30062 10.57259,13.32226 10.57259,35.73757 v 160.71324 q 0,24.9528 -17.12827,42.08147 -17.12837,17.12867 -42.08094,17.12867 l 25.37486,25.37578 v 8.45858 H 442.33715 L 408.5028,632.49275 H 340.834 l -33.83435,33.83436 H 273.1653 v -8.45858 l 25.37671,-25.37578 q -24.95268,0 -42.08279,-17.12867 -17.12827,-17.12867 -17.12827,-42.08147 z m 135.33751,-194.5476 q -44.83108,0 -65.55386,5.28646 -20.72288,5.28664 -28.33615,11.63072 H 470.2509 q -6.34453,-7.18985 -27.27857,-12.05352 -20.93576,-4.86366 -68.30387,-4.86366 z M 273.1653,480.2381 h 84.58593 V 429.48656 H 273.1653 Z m 177.63134,33.83437 H 273.1653 476.1715 Z M 391.58558,480.2381 h 84.58592 v -50.75154 h -84.58592 z m -76.12645,101.5031 q 10.99489,0 18.18575,-7.18985 7.18912,-7.18985 7.18912,-18.18592 0,-10.99627 -7.18912,-18.18611 -7.19086,-7.18967 -18.18575,-7.18967 -10.99662,0 -18.18574,7.18967 -7.19086,7.18984 -7.19086,18.18611 0,10.99607 7.19086,18.18592 7.18912,7.18985 18.18574,7.18985 z m 118.42028,0 q 10.99488,0 18.18574,-7.18985 7.18912,-7.18985 7.18912,-18.18592 0,-10.99627 -7.18912,-18.18611 -7.19086,-7.18967 -18.18574,-7.18967 -10.99662,0 -18.18575,7.18967 -7.19086,7.18984 -7.19086,18.18611 0,10.99607 7.19086,18.18592 7.18913,7.18985 18.18575,7.18985 z m -135.3374,16.91718 h 152.25463 q 10.99477,0 18.18574,-7.18984 7.18912,-7.18985 7.18912,-18.18593 V 514.07247 H 273.1653 v 59.21014 q 0,10.99608 7.19097,18.18593 7.18912,7.18984 18.18574,7.18984 z M 374.66846,395.65219 H 470.2509 280.77845 Z"
       id="path1863"
       style="fill:#000000;stroke:none;stroke-width:9.375;stroke-dasharray:none;stroke-opacity:1" /></g></svg>
