<?xml version="1.0" encoding="UTF-8" standalone="no"?>
<!-- Created with Inkscape (http://www.inkscape.org/) -->

<svg
   viewBox="0 0 467.8816 467.20707"
   id="svg2"
   version="1.1"
   xml:space="preserve"
   xmlns="http://www.w3.org/2000/svg"
   xmlns:svg="http://www.w3.org/2000/svg"
   xmlns:rdf="http://www.w3.org/1999/02/22-rdf-syntax-ns#"
   xmlns:cc="http://creativecommons.org/ns#"
   xmlns:dc="http://purl.org/dc/elements/1.1/"><defs
     id="defs4" /><metadata
     id="metadata7"><rdf:RDF><cc:Work
         rdf:about=""><dc:format>image/svg+xml</dc:format><dc:type
           rdf:resource="http://purl.org/dc/dcmitype/StillImage" /></cc:Work></rdf:RDF></metadata><g
     id="layer1"
     transform="translate(-142.16917,-274.73565)"><rect
       style="color:#000000;clip-rule:nonzero;display:inline;overflow:visible;visibility:visible;opacity:1;isolation:auto;mix-blend-mode:normal;color-interpolation:sRGB;color-interpolation-filters:linearRGB;solid-color:#000000;solid-opacity:1;fill:none;fill-opacity:1;fill-rule:nonzero;stroke:#ffffff;stroke-width:13.7466;stroke-linecap:round;stroke-linejoin:round;stroke-miterlimit:36.4;stroke-dasharray:none;stroke-dashoffset:0;stroke-opacity:1;color-rendering:auto;image-rendering:auto;shape-rendering:auto;text-rendering:auto;enable-background:accumulate"
       id="rect4353"
       width="454.13501"
       height="453.46051"
       x="149.04247"
       y="281.60895"
       ry="49.661018" /><path
       d="m 202.36871,701.45576 v -28.95027 h 48.25045 v -14.47524 h -28.95027 v -28.95027 h 28.95027 v -14.47503 h -48.25045 v -28.95026 h 57.90053 q 8.20264,0 13.75141,5.54877 5.54878,5.54877 5.54878,13.7514 v 19.30018 q 0,8.20262 -5.54878,13.75141 -5.54877,5.54877 -13.75141,5.54877 8.20264,0 13.75141,5.54877 5.54878,5.54878 5.54878,13.75141 v 19.30017 q 0,8.20264 -5.54878,13.75141 -5.54877,5.54878 -13.75141,5.54878 z m 0,-135.10126 v -53.07559 q 0,-8.20243 5.54898,-13.75121 5.54878,-5.54897 13.7512,-5.54897 h 28.95027 v -14.47504 h -48.25045 v -28.95027 h 57.90053 q 8.20264,0 13.75141,5.54878 5.54878,5.54878 5.54878,13.7514 v 33.77521 q 0,8.20264 -5.54878,13.75141 -5.54877,5.54877 -13.75141,5.54877 h -28.95026 v 14.47525 h 48.25045 v 28.95026 z m 28.95027,-135.10125 v -86.85081 h -28.95027 v -28.95027 h 57.90053 v 115.80108 z m 86.85081,212.30197 v -38.60036 h 231.60215 v 38.60036 z m 0,-115.80108 v -38.60035 h 231.60215 v 38.60035 z m 0,-115.80107 V 373.3527 h 231.60215 v 38.60037 z"
       id="path277"
       style="fill:#ffffff;stroke-width:0.482505" /></g></svg>
