<?xml version="1.0" encoding="UTF-8" standalone="no"?>
<!-- Created with Inkscape (http://www.inkscape.org/) -->

<svg
   viewBox="0 0 467.88163 467.20711"
   id="svg2"
   version="1.1"
   inkscape:version="1.2.2 (732a01da63, 2022-12-09)"
   sodipodi:docname="toolbar_button_routes.svg"
   inkscape:export-filename="..\images\toolbar_button_turnouts.svg"
   inkscape:export-xdpi="140.07675"
   inkscape:export-ydpi="140.07675"
   xml:space="preserve"
   xmlns:inkscape="http://www.inkscape.org/namespaces/inkscape"
   xmlns:sodipodi="http://sodipodi.sourceforge.net/DTD/sodipodi-0.dtd"
   xmlns="http://www.w3.org/2000/svg"
   xmlns:svg="http://www.w3.org/2000/svg"
   xmlns:rdf="http://www.w3.org/1999/02/22-rdf-syntax-ns#"
   xmlns:cc="http://creativecommons.org/ns#"
   xmlns:dc="http://purl.org/dc/elements/1.1/"><defs
     id="defs4" /><sodipodi:namedview
     id="base"
     pagecolor="#ffffff"
     bordercolor="#666666"
     borderopacity="1.0"
     inkscape:pageopacity="0.0"
     inkscape:pageshadow="2"
     inkscape:zoom="1.4142136"
     inkscape:cx="-48.08326"
     inkscape:cy="221.32442"
     inkscape:document-units="px"
     inkscape:current-layer="layer1"
     showgrid="false"
     showguides="true"
     inkscape:guide-bbox="true"
     inkscape:window-width="2400"
     inkscape:window-height="1244"
     inkscape:window-x="2869"
     inkscape:window-y="-11"
     inkscape:window-maximized="1"
     inkscape:snap-to-guides="true"
     inkscape:snap-midpoints="true"
     inkscape:snap-intersection-paths="true"
     inkscape:snap-nodes="false"
     inkscape:snap-others="false"
     inkscape:showpageshadow="0"
     inkscape:pagecheckerboard="true"
     inkscape:deskcolor="#d1d1d1"><sodipodi:guide
       position="-21.955485,520.52648"
       orientation="1,0"
       id="guide4734"
       inkscape:locked="false" /><sodipodi:guide
       position="460.15423,528.49523"
       orientation="1,0"
       id="guide4736"
       inkscape:locked="false" /><sodipodi:guide
       position="-24.69024,6.8691238"
       orientation="0,1"
       id="guide4738"
       inkscape:locked="false" /><sodipodi:guide
       position="192.86954,489.26268"
       orientation="0,1"
       id="guide5168"
       inkscape:locked="false" /></sodipodi:namedview><metadata
     id="metadata7"><rdf:RDF><cc:Work
         rdf:about=""><dc:format>image/svg+xml</dc:format><dc:type
           rdf:resource="http://purl.org/dc/dcmitype/StillImage" /></cc:Work></rdf:RDF></metadata><g
     inkscape:label="Layer 1"
     inkscape:groupmode="layer"
     id="layer1"
     transform="translate(-142.16917,-274.73565)"><rect
       style="color:#000000;clip-rule:nonzero;display:inline;overflow:visible;visibility:visible;opacity:1;isolation:auto;mix-blend-mode:normal;color-interpolation:sRGB;color-interpolation-filters:linearRGB;solid-color:#000000;solid-opacity:1;fill:none;fill-opacity:1;fill-rule:nonzero;stroke:#ffffff;stroke-width:13.7466;stroke-linecap:round;stroke-linejoin:round;stroke-miterlimit:36.4;stroke-dasharray:none;stroke-dashoffset:0;stroke-opacity:1;color-rendering:auto;image-rendering:auto;shape-rendering:auto;text-rendering:auto;enable-background:accumulate"
       id="rect4353"
       width="454.13501"
       height="453.46051"
       x="149.04247"
       y="281.60895"
       ry="49.661018"
       inkscape:export-xdpi="6.924829"
       inkscape:export-ydpi="6.924829"
       inkscape:export-filename="..\EX_Toolbox\src\main\res\drawable\toolbar_button_track_manager.png" /><g
       id="g409"
       transform="matrix(19.443815,0,0,19.443815,144.14848,277.40684)"
       style="fill:#ffffff;stroke:none"><g
         id="g407"
         style="fill:#ffffff;stroke:none"><path
           d="M 19,15.18 V 7 C 19,4.79 17.21,3 15,3 12.79,3 11,4.79 11,7 v 10 c 0,1.1 -0.9,2 -2,2 C 7.9,19 7,18.1 7,17 V 8.82 C 8.16,8.4 9,7.3 9,6 9,4.34 7.66,3 6,3 4.34,3 3,4.34 3,6 3,7.3 3.84,8.4 5,8.82 V 17 c 0,2.21 1.79,4 4,4 2.21,0 4,-1.79 4,-4 V 7 c 0,-1.1 0.9,-2 2,-2 1.1,0 2,0.9 2,2 v 8.18 c -1.16,0.41 -2,1.51 -2,2.82 0,1.66 1.34,3 3,3 1.66,0 3,-1.34 3,-3 0,-1.3 -0.84,-2.4 -2,-2.82 z"
           id="path405"
           style="fill:#ffffff;stroke:none" /></g></g></g></svg>
