<?xml version="1.0" encoding="UTF-8" standalone="no"?>
<!-- Created with Inkscape (http://www.inkscape.org/) -->

<svg
   viewBox="0 0 467.88163 467.20711"
   id="svg2"
   version="1.1"
   xml:space="preserve"
   sodipodi:docname="toolbar_buttonwifi.svg"
   inkscape:version="1.4.2 (f4327f4, 2025-05-13)"
   xmlns:inkscape="http://www.inkscape.org/namespaces/inkscape"
   xmlns:sodipodi="http://sodipodi.sourceforge.net/DTD/sodipodi-0.dtd"
   xmlns="http://www.w3.org/2000/svg"
   xmlns:svg="http://www.w3.org/2000/svg"
   xmlns:rdf="http://www.w3.org/1999/02/22-rdf-syntax-ns#"
   xmlns:cc="http://creativecommons.org/ns#"
   xmlns:dc="http://purl.org/dc/elements/1.1/"><sodipodi:namedview
     id="namedview1"
     pagecolor="#ffffff"
     bordercolor="#000000"
     borderopacity="0.25"
     inkscape:showpageshadow="2"
     inkscape:pageopacity="0.0"
     inkscape:pagecheckerboard="0"
     inkscape:deskcolor="#d1d1d1"
     inkscape:zoom="1.3891055"
     inkscape:cx="233.96351"
     inkscape:cy="233.60356"
     inkscape:window-width="1600"
     inkscape:window-height="829"
     inkscape:window-x="-8"
     inkscape:window-y="114"
     inkscape:window-maximized="1"
     inkscape:current-layer="svg2" /><defs
     id="defs4" /><metadata
     id="metadata7"><rdf:RDF><cc:Work
         rdf:about=""><dc:format>image/svg+xml</dc:format><dc:type
           rdf:resource="http://purl.org/dc/dcmitype/StillImage" /></cc:Work></rdf:RDF></metadata><rect
     style="color:#000000;clip-rule:nonzero;display:inline;overflow:visible;visibility:visible;isolation:auto;mix-blend-mode:normal;color-interpolation:sRGB;color-interpolation-filters:linearRGB;solid-color:#000000;solid-opacity:1;fill:none;fill-opacity:1;fill-rule:nonzero;stroke:#000000;stroke-width:13.7466;stroke-linecap:round;stroke-linejoin:round;stroke-miterlimit:36.4;stroke-dasharray:none;stroke-dashoffset:0;stroke-opacity:1;color-rendering:auto;image-rendering:auto;shape-rendering:auto;text-rendering:auto;enable-background:accumulate"
     id="rect4353"
     width="454.13501"
     height="453.46051"
     x="6.8732953"
     y="6.8732977"
     ry="49.661018" /><path
     d="m 176.55457,297.0964 q 8.92028,-8.92027 20.07062,-14.59681 11.15034,-5.67654 23.71981,-7.70387 -2.02733,7.70387 -3.24373,15.40774 -1.21641,7.70387 -1.21641,15.81321 0,9.73121 1.41914,19.05695 1.41914,9.32575 4.66287,17.84055 z m -34.46469,-34.05922 -34.05923,-34.87017 q 25.13895,-25.13895 57.57631,-38.51936 32.43736,-13.3804 68.11845,-13.3804 19.86788,0 38.92484,4.2574 19.05694,4.2574 36.49202,12.36674 -17.84055,3.24374 -33.04556,11.75854 -15.20501,8.51481 -27.36902,21.08429 -3.6492,-0.40547 -7.50114,-0.60821 -3.85193,-0.20273 -7.50114,-0.20273 -25.94988,0 -49.6697,9.93394 -23.71981,9.93394 -41.96583,28.17996 z M 73.160494,194.10779 39.101269,160.04857 q 38.519362,-39.3303 89.000001,-60.21185 50.48063,-20.881549 105.62414,-20.881549 55.14351,0 105.62415,20.881549 50.48063,20.88155 89,60.21185 l -34.05923,34.05922 q -32.03189,-32.03189 -73.59225,-49.26424 -41.56037,-17.23234 -86.97267,-17.23234 -45.4123,0 -86.97266,17.23234 -41.56037,17.23235 -73.592256,49.26424 z m 274.095676,30.81549 4.8656,24.32802 q 4.8656,2.02734 9.123,4.2574 4.25741,2.23007 8.71754,5.47381 l 23.51709,-7.29841 16.21868,27.57176 -18.65148,16.21867 q 0.81093,4.86561 0.81093,10.54214 0,5.67654 -0.81093,10.54215 l 18.65148,16.21867 -16.21868,27.57175 -23.51709,-7.2984 q -4.46013,3.24374 -8.71754,5.47381 -4.2574,2.23006 -9.123,4.2574 l -4.8656,24.32802 h -32.43736 l -4.8656,-24.32802 q -4.86561,-2.02734 -9.12301,-4.2574 -4.2574,-2.23007 -8.71754,-5.47381 l -23.51708,7.2984 -16.21868,-27.57175 18.65148,-16.21867 q -0.81094,-4.86561 -0.81094,-10.54215 0,-5.67653 0.81094,-10.54214 l -18.65148,-16.21867 16.21868,-27.57176 23.51708,7.29841 q 4.46014,-3.24374 8.71754,-5.47381 4.2574,-2.23006 9.12301,-4.2574 l 4.8656,-24.32802 z m -39.12757,58.18451 q -9.52847,9.52848 -9.52847,22.90888 0,13.38041 9.52847,22.90889 9.52848,9.52848 22.90889,9.52848 13.3804,0 22.90888,-9.52848 9.52848,-9.52848 9.52848,-22.90889 0,-13.3804 -9.52848,-22.90888 -9.52848,-9.52848 -22.90888,-9.52848 -13.38041,0 -22.90889,9.52848 z"
     id="path1"
     style="stroke-width:0.405467" /></svg>
