<?xml version="1.0" encoding="UTF-8" standalone="no"?>
<!-- Created with Inkscape (http://www.inkscape.org/) -->

<svg
   viewBox="0 0 467.88163 467.20711"
   id="svg2"
   version="1.1"
   xml:space="preserve"
   sodipodi:docname="toolbar_button_locos_disabled.svg"
   inkscape:version="1.4.2 (f4327f4, 2025-05-13)"
   xmlns:inkscape="http://www.inkscape.org/namespaces/inkscape"
   xmlns:sodipodi="http://sodipodi.sourceforge.net/DTD/sodipodi-0.dtd"
   xmlns="http://www.w3.org/2000/svg"
   xmlns:svg="http://www.w3.org/2000/svg"
   xmlns:rdf="http://www.w3.org/1999/02/22-rdf-syntax-ns#"
   xmlns:cc="http://creativecommons.org/ns#"
   xmlns:dc="http://purl.org/dc/elements/1.1/"><sodipodi:namedview
     id="namedview1"
     pagecolor="#ffffff"
     bordercolor="#000000"
     borderopacity="0.25"
     inkscape:showpageshadow="2"
     inkscape:pageopacity="0.0"
     inkscape:pagecheckerboard="0"
     inkscape:deskcolor="#d1d1d1"
     inkscape:zoom="0.69455277"
     inkscape:cx="368.58251"
     inkscape:cy="354.90464"
     inkscape:window-width="1600"
     inkscape:window-height="829"
     inkscape:window-x="-8"
     inkscape:window-y="114"
     inkscape:window-maximized="1"
     inkscape:current-layer="svg2" /><defs
     id="defs4" /><metadata
     id="metadata7"><rdf:RDF><cc:Work
         rdf:about=""><dc:format>image/svg+xml</dc:format><dc:type
           rdf:resource="http://purl.org/dc/dcmitype/StillImage" /></cc:Work></rdf:RDF></metadata><rect
     style="color:#000000;clip-rule:nonzero;display:inline;overflow:visible;visibility:visible;isolation:auto;mix-blend-mode:normal;color-interpolation:sRGB;color-interpolation-filters:linearRGB;solid-color:#000000;solid-opacity:1;fill:none;fill-opacity:1;fill-rule:nonzero;stroke:#4d4d4d;stroke-width:13.7466;stroke-linecap:round;stroke-linejoin:round;stroke-miterlimit:36.4;stroke-dasharray:none;stroke-dashoffset:0;stroke-opacity:1;color-rendering:auto;image-rendering:auto;shape-rendering:auto;text-rendering:auto;enable-background:accumulate"
     id="rect4353"
     width="454.13501"
     height="453.46051"
     x="6.8732953"
     y="6.8732977"
     ry="49.661018" /><path
     d="m 60.19954,426.72011 v -28.95027 h 48.25045 V 383.2946 H 79.49972 v -28.95027 h 28.95027 V 339.8693 H 60.19954 v -28.95026 h 57.90053 q 8.20264,0 13.75141,5.54877 5.54878,5.54877 5.54878,13.7514 v 19.30018 q 0,8.20262 -5.54878,13.75141 -5.54877,5.54877 -13.75141,5.54877 8.20264,0 13.75141,5.54877 5.54878,5.54878 5.54878,13.75141 v 19.30017 q 0,8.20264 -5.54878,13.75141 -5.54877,5.54878 -13.75141,5.54878 z m 0,-135.10126 v -53.07559 q 0,-8.20243 5.54898,-13.75121 5.54878,-5.54897 13.7512,-5.54897 h 28.95027 V 204.76804 H 60.19954 v -28.95027 h 57.90053 q 8.20264,0 13.75141,5.54878 5.54878,5.54878 5.54878,13.7514 v 33.77521 q 0,8.20264 -5.54878,13.75141 -5.54877,5.54877 -13.75141,5.54877 H 89.14981 v 14.47525 h 48.25045 v 28.95026 z M 89.14981,156.5176 V 69.66679 H 60.19954 V 40.71652 h 57.90053 V 156.5176 Z m 86.85081,212.30197 v -38.60036 h 231.60215 v 38.60036 z m 0,-115.80108 v -38.60035 h 231.60215 v 38.60035 z m 0,-115.80107 V 98.61705 h 231.60215 v 38.60037 z"
     id="path277"
     style="fill:#4d4d4d;stroke:none;stroke-width:0.482505" /></svg>
